<?xml version="1.0" standalone="no"?>
<!DOCTYPE svg PUBLIC "-//W3C//DTD SVG 20010904//EN"
 "http://www.w3.org/TR/2001/REC-SVG-20010904/DTD/svg10.dtd">
<svg version="1.0" xmlns="http://www.w3.org/2000/svg"
 width="512.000000pt" height="512.000000pt" viewBox="0 0 512.000000 512.000000"
 preserveAspectRatio="xMidYMid meet">

<g transform="translate(0.000000,512.000000) scale(0.100000,-0.100000)"
fill="#000000" stroke="none">
<path d="M352 4947 c-22 -23 -22 -29 -22 -325 l0 -302 -138 0 c-125 0 -140 -2
-160 -20 -12 -11 -24 -31 -27 -43 -3 -12 -4 -818 -3 -1790 l3 -1769 24 -19
c23 -18 55 -19 1110 -19 l1086 0 61 -67 62 -68 212 0 212 0 62 68 61 68 220
-3 220 -3 5 -187 5 -186 30 -43 c17 -23 50 -53 74 -66 40 -21 57 -23 183 -23
148 0 190 9 236 53 52 48 57 70 62 267 l5 185 572 5 c532 5 574 6 590 23 17
17 18 104 21 1785 1 972 0 1777 -3 1789 -3 12 -15 32 -27 43 -20 18 -35 20
-160 20 l-138 0 0 303 0 304 -23 21 -23 22 -975 0 c-1039 0 -1009 1 -1106 -49
-22 -11 -54 -32 -72 -46 l-31 -27 -31 27 c-18 14 -50 35 -72 46 -97 50 -67 49
-1108 49 l-976 0 -21 -23z m2020 -165 c26 -13 71 -48 100 -78 44 -46 57 -54
88 -54 31 0 44 8 88 54 29 30 74 65 100 78 l47 23 918 3 917 2 0 -1670 0
-1670 -240 0 -241 0 -24 -25 c-27 -26 -32 -70 -12 -96 28 -36 51 -39 342 -39
l286 0 24 25 25 24 0 1401 0 1400 85 0 85 0 0 -1670 0 -1670 -508 0 -509 0 -6
182 c-4 99 -7 782 -7 1517 l0 1336 -110 265 c-113 272 -136 310 -185 310 -48
0 -71 -39 -184 -313 l-111 -267 0 -1515 0 -1514 -261 -3 -262 -3 -62 -67 -63
-68 -132 0 -132 0 -63 68 -63 67 -1071 3 -1071 2 0 1670 0 1670 85 0 85 0 0
-1399 c0 -1362 0 -1399 19 -1422 l19 -24 974 -5 973 -5 50 -23 c28 -13 65 -37
83 -54 28 -28 32 -38 32 -86 0 -61 8 -59 -95 -20 l-60 23 -972 0 -971 0 -26
-24 c-32 -30 -34 -78 -6 -109 12 -12 22 -23 23 -24 1 -2 441 -5 977 -8 l975
-5 47 -23 c26 -13 71 -48 100 -78 44 -46 57 -54 88 -54 31 0 44 8 88 54 86 89
118 100 312 107 91 3 166 7 167 8 48 32 56 95 17 132 -25 23 -30 24 -187 23
-141 -1 -170 -4 -222 -23 -104 -38 -95 -40 -95 21 0 48 4 58 33 86 64 62 114
76 295 82 157 5 165 6 183 29 26 32 24 77 -6 106 -23 24 -28 25 -177 25 -183
0 -254 -16 -347 -78 l-61 -40 -61 40 c-121 81 -77 78 -1101 78 l-908 0 0 1670
0 1670 918 -2 917 -3 47 -23z m1313 -757 c21 -49 39 -96 42 -102 4 -10 -18
-13 -91 -13 -53 0 -96 1 -96 3 0 1 16 41 36 87 20 47 40 96 45 109 13 32 20
23 64 -84z m85 -1655 l0 -1380 -135 0 -135 0 0 1380 0 1380 135 0 135 0 0
-1380z m0 -1620 l0 -80 -135 0 -135 0 0 80 0 80 135 0 135 0 0 -80z"/>
<path d="M802 4524 c-32 -22 -44 -58 -31 -91 20 -54 -6 -52 697 -53 408 0 660
4 672 10 25 13 41 65 30 94 -22 58 3 56 -700 56 -576 0 -648 -2 -668 -16z"/>
<path d="M2525 4468 c-47 -25 -45 39 -45 -1444 l0 -1403 23 -27 c33 -37 81
-37 114 0 l23 27 0 1399 c0 769 -3 1406 -6 1415 -7 17 -54 45 -76 45 -7 0 -22
-6 -33 -12z"/>
<path d="M794 4127 c-20 -17 -27 -33 -27 -57 0 -24 7 -40 27 -57 l27 -23 652
0 c519 1 655 3 669 14 41 31 41 101 0 132 -14 11 -150 13 -669 14 l-652 0 -27
-23z"/>
<path d="M798 3746 c-26 -19 -39 -62 -28 -90 21 -55 27 -56 383 -56 335 0 356
2 384 39 20 26 15 70 -12 96 l-24 25 -343 0 c-266 -1 -347 -4 -360 -14z"/>
<path d="M790 3350 c-30 -30 -30 -83 1 -115 19 -20 34 -20 667 -22 699 -3 684
-4 710 51 16 32 2 80 -29 96 -11 6 -273 10 -673 10 -643 0 -656 0 -676 -20z"/>
<path d="M824 2983 c-48 -9 -71 -72 -45 -120 6 -12 28 -27 49 -33 24 -6 257
-10 650 -10 513 0 618 2 647 15 57 23 69 90 23 132 -19 17 -56 18 -662 19
-352 1 -651 0 -662 -3z"/>
<path d="M810 2587 c-48 -24 -50 -38 -50 -408 0 -357 4 -400 40 -419 25 -13
1315 -14 1339 0 31 16 45 64 29 96 -19 40 -53 54 -135 54 l-73 0 0 145 c0 184
-13 215 -86 215 -14 0 -36 -11 -49 -25 -24 -24 -25 -28 -25 -180 l0 -155 -95
0 -95 0 0 319 c0 297 -1 320 -19 342 -25 31 -83 32 -114 1 -22 -22 -22 -27
-25 -342 l-3 -320 -89 0 -90 0 0 155 c0 152 -1 156 -25 180 -15 16 -36 25 -55
25 -19 0 -40 -9 -55 -25 -24 -24 -25 -28 -25 -180 l0 -155 -89 0 -90 0 -3 320
c-3 304 -4 320 -23 339 -27 27 -65 34 -95 18z"/>
<path d="M4163 1143 c-29 -6 -63 -49 -63 -79 0 -12 11 -36 24 -51 l24 -28 269
-3 c147 -2 283 0 301 3 70 13 96 89 46 136 l-26 24 -276 1 c-152 1 -287 0
-299 -3z"/>
</g>
</svg>
